<mxfile host="app.diagrams.net" agent="Mozilla/5.0 (Windows NT 10.0; Win64; x64) AppleWebKit/537.36 (KHTML, like Gecko) Chrome/138.0.0.0 Safari/537.36 OPR/122.0.0.0" version="28.2.8">
  <diagram name="PÃ¡gina-1" id="2KwDnul4yXLcCpcak5Mm">
    <mxGraphModel dx="1384" dy="755" grid="1" gridSize="10" guides="1" tooltips="1" connect="1" arrows="1" fold="1" page="1" pageScale="1" pageWidth="1169" pageHeight="827" math="0" shadow="0">
      <root>
        <mxCell id="0" />
        <mxCell id="1" parent="0" />
        <mxCell id="ouNSiFEAy5_-CoIqK-8x-1" value="" style="html=1;verticalLabelPosition=bottom;align=center;labelBackgroundColor=#ffffff;verticalAlign=top;strokeWidth=2;strokeColor=#FF00FF;shadow=0;dashed=0;shape=mxgraph.ios7.icons.smartphone;" vertex="1" parent="1">
          <mxGeometry x="310" y="289.5" width="60" height="100" as="geometry" />
        </mxCell>
        <mxCell id="ouNSiFEAy5_-CoIqK-8x-14" value="READER" style="edgeStyle=orthogonalEdgeStyle;rounded=0;orthogonalLoop=1;jettySize=auto;html=1;" edge="1" parent="1" source="ouNSiFEAy5_-CoIqK-8x-2">
          <mxGeometry relative="1" as="geometry">
            <mxPoint x="610" y="209.5" as="targetPoint" />
            <Array as="points">
              <mxPoint x="540" y="339.5" />
              <mxPoint x="540" y="209.5" />
            </Array>
          </mxGeometry>
        </mxCell>
        <mxCell id="ouNSiFEAy5_-CoIqK-8x-2" value="API Gateway" style="sketch=0;points=[[0,0,0],[0.25,0,0],[0.5,0,0],[0.75,0,0],[1,0,0],[0,1,0],[0.25,1,0],[0.5,1,0],[0.75,1,0],[1,1,0],[0,0.25,0],[0,0.5,0],[0,0.75,0],[1,0.25,0],[1,0.5,0],[1,0.75,0]];outlineConnect=0;fontColor=#232F3E;fillColor=#E7157B;strokeColor=#ffffff;dashed=0;verticalLabelPosition=bottom;verticalAlign=top;align=center;html=1;fontSize=12;fontStyle=0;aspect=fixed;shape=mxgraph.aws4.resourceIcon;resIcon=mxgraph.aws4.api_gateway;" vertex="1" parent="1">
          <mxGeometry x="440" y="300.5" width="78" height="78" as="geometry" />
        </mxCell>
        <mxCell id="ouNSiFEAy5_-CoIqK-8x-17" value="" style="edgeStyle=orthogonalEdgeStyle;rounded=0;orthogonalLoop=1;jettySize=auto;html=1;" edge="1" parent="1" target="ouNSiFEAy5_-CoIqK-8x-1">
          <mxGeometry relative="1" as="geometry">
            <mxPoint x="240" y="339.5" as="sourcePoint" />
          </mxGeometry>
        </mxCell>
        <mxCell id="ouNSiFEAy5_-CoIqK-8x-3" value="User" style="sketch=0;outlineConnect=0;fontColor=#232F3E;gradientColor=none;strokeColor=#232F3E;fillColor=#ffffff;dashed=0;verticalLabelPosition=bottom;verticalAlign=top;align=center;html=1;fontSize=12;fontStyle=0;aspect=fixed;shape=mxgraph.aws4.resourceIcon;resIcon=mxgraph.aws4.user;" vertex="1" parent="1">
          <mxGeometry x="170" y="306.5" width="60" height="60" as="geometry" />
        </mxCell>
        <mxCell id="ouNSiFEAy5_-CoIqK-8x-20" value="" style="edgeStyle=orthogonalEdgeStyle;rounded=0;orthogonalLoop=1;jettySize=auto;html=1;entryX=0;entryY=0.5;entryDx=0;entryDy=0;" edge="1" parent="1" source="ouNSiFEAy5_-CoIqK-8x-4">
          <mxGeometry relative="1" as="geometry">
            <mxPoint x="730" y="205" as="targetPoint" />
          </mxGeometry>
        </mxCell>
        <mxCell id="ouNSiFEAy5_-CoIqK-8x-25" value="" style="edgeStyle=orthogonalEdgeStyle;rounded=0;orthogonalLoop=1;jettySize=auto;html=1;" edge="1" parent="1" source="ouNSiFEAy5_-CoIqK-8x-4" target="ouNSiFEAy5_-CoIqK-8x-5">
          <mxGeometry relative="1" as="geometry" />
        </mxCell>
        <mxCell id="ouNSiFEAy5_-CoIqK-8x-4" value="AWS Lambda" style="outlineConnect=0;dashed=0;verticalLabelPosition=bottom;verticalAlign=top;align=center;html=1;shape=mxgraph.aws3.lambda_function;fillColor=#F58534;gradientColor=none;" vertex="1" parent="1">
          <mxGeometry x="611" y="169.5" width="69" height="72" as="geometry" />
        </mxCell>
        <mxCell id="ouNSiFEAy5_-CoIqK-8x-23" style="edgeStyle=orthogonalEdgeStyle;rounded=0;orthogonalLoop=1;jettySize=auto;html=1;entryX=0;entryY=0.5;entryDx=0;entryDy=0;" edge="1" parent="1" source="ouNSiFEAy5_-CoIqK-8x-5">
          <mxGeometry relative="1" as="geometry">
            <mxPoint x="730" y="342.5" as="targetPoint" />
          </mxGeometry>
        </mxCell>
        <mxCell id="ouNSiFEAy5_-CoIqK-8x-5" value="AWS Lambda" style="outlineConnect=0;dashed=0;verticalLabelPosition=bottom;verticalAlign=top;align=center;html=1;shape=mxgraph.aws3.lambda_function;fillColor=#F58534;gradientColor=none;" vertex="1" parent="1">
          <mxGeometry x="610" y="306.5" width="70" height="72" as="geometry" />
        </mxCell>
        <mxCell id="ouNSiFEAy5_-CoIqK-8x-24" style="edgeStyle=orthogonalEdgeStyle;rounded=0;orthogonalLoop=1;jettySize=auto;html=1;entryX=0;entryY=0.5;entryDx=0;entryDy=0;" edge="1" parent="1" source="ouNSiFEAy5_-CoIqK-8x-6">
          <mxGeometry relative="1" as="geometry">
            <mxPoint x="730" y="495.5" as="targetPoint" />
          </mxGeometry>
        </mxCell>
        <mxCell id="ouNSiFEAy5_-CoIqK-8x-6" value="AWS Lambda" style="outlineConnect=0;dashed=0;verticalLabelPosition=bottom;verticalAlign=top;align=center;html=1;shape=mxgraph.aws3.lambda_function;fillColor=#F58534;gradientColor=none;" vertex="1" parent="1">
          <mxGeometry x="610" y="459.5" width="69" height="72" as="geometry" />
        </mxCell>
        <mxCell id="ouNSiFEAy5_-CoIqK-8x-7" value="" style="outlineConnect=0;dashed=0;verticalLabelPosition=bottom;verticalAlign=top;align=center;html=1;shape=mxgraph.aws3.iam;fillColor=#759C3E;gradientColor=none;" vertex="1" parent="1">
          <mxGeometry x="740" y="119.5" width="40" height="61" as="geometry" />
        </mxCell>
        <mxCell id="ouNSiFEAy5_-CoIqK-8x-8" value="" style="endArrow=none;dashed=1;html=1;dashPattern=1 3;strokeWidth=2;rounded=0;" edge="1" parent="1">
          <mxGeometry width="50" height="50" relative="1" as="geometry">
            <mxPoint x="580" y="559.5" as="sourcePoint" />
            <mxPoint x="580" y="119.5" as="targetPoint" />
          </mxGeometry>
        </mxCell>
        <mxCell id="ouNSiFEAy5_-CoIqK-8x-9" value="" style="endArrow=none;dashed=1;html=1;dashPattern=1 3;strokeWidth=2;rounded=0;" edge="1" parent="1">
          <mxGeometry width="50" height="50" relative="1" as="geometry">
            <mxPoint x="580" y="559.5" as="sourcePoint" />
            <mxPoint x="790" y="559.5" as="targetPoint" />
          </mxGeometry>
        </mxCell>
        <mxCell id="ouNSiFEAy5_-CoIqK-8x-10" value="" style="endArrow=none;dashed=1;html=1;dashPattern=1 3;strokeWidth=2;rounded=0;" edge="1" parent="1">
          <mxGeometry width="50" height="50" relative="1" as="geometry">
            <mxPoint x="790" y="558.5" as="sourcePoint" />
            <mxPoint x="790" y="119.5" as="targetPoint" />
          </mxGeometry>
        </mxCell>
        <mxCell id="ouNSiFEAy5_-CoIqK-8x-11" value="" style="endArrow=none;dashed=1;html=1;dashPattern=1 3;strokeWidth=2;rounded=0;" edge="1" parent="1">
          <mxGeometry width="50" height="50" relative="1" as="geometry">
            <mxPoint x="580" y="119.5" as="sourcePoint" />
            <mxPoint x="790" y="119.5" as="targetPoint" />
          </mxGeometry>
        </mxCell>
        <mxCell id="ouNSiFEAy5_-CoIqK-8x-12" value="request" style="edgeStyle=orthogonalEdgeStyle;rounded=0;orthogonalLoop=1;jettySize=auto;html=1;" edge="1" parent="1">
          <mxGeometry relative="1" as="geometry">
            <mxPoint x="240" y="339.5" as="sourcePoint" />
            <mxPoint x="310" y="339.5" as="targetPoint" />
          </mxGeometry>
        </mxCell>
        <mxCell id="ouNSiFEAy5_-CoIqK-8x-13" style="edgeStyle=orthogonalEdgeStyle;rounded=0;orthogonalLoop=1;jettySize=auto;html=1;entryX=0;entryY=0.5;entryDx=0;entryDy=0;entryPerimeter=0;" edge="1" parent="1" source="ouNSiFEAy5_-CoIqK-8x-1" target="ouNSiFEAy5_-CoIqK-8x-2">
          <mxGeometry relative="1" as="geometry" />
        </mxCell>
        <mxCell id="ouNSiFEAy5_-CoIqK-8x-15" value="WRITER" style="edgeStyle=orthogonalEdgeStyle;rounded=0;orthogonalLoop=1;jettySize=auto;html=1;entryX=0;entryY=0.5;entryDx=0;entryDy=0;entryPerimeter=0;" edge="1" parent="1" source="ouNSiFEAy5_-CoIqK-8x-2" target="ouNSiFEAy5_-CoIqK-8x-5">
          <mxGeometry relative="1" as="geometry">
            <Array as="points">
              <mxPoint x="540" y="342.5" />
              <mxPoint x="540" y="342.5" />
            </Array>
          </mxGeometry>
        </mxCell>
        <mxCell id="ouNSiFEAy5_-CoIqK-8x-16" value="PAYMENT" style="edgeStyle=orthogonalEdgeStyle;rounded=0;orthogonalLoop=1;jettySize=auto;html=1;entryX=0;entryY=0.5;entryDx=0;entryDy=0;entryPerimeter=0;" edge="1" parent="1" source="ouNSiFEAy5_-CoIqK-8x-2" target="ouNSiFEAy5_-CoIqK-8x-6">
          <mxGeometry relative="1" as="geometry">
            <Array as="points">
              <mxPoint x="540" y="339.5" />
              <mxPoint x="540" y="495.5" />
            </Array>
          </mxGeometry>
        </mxCell>
        <mxCell id="ouNSiFEAy5_-CoIqK-8x-26" value="DynamoDB" style="sketch=0;points=[[0,0,0],[0.25,0,0],[0.5,0,0],[0.75,0,0],[1,0,0],[0,1,0],[0.25,1,0],[0.5,1,0],[0.75,1,0],[1,1,0],[0,0.25,0],[0,0.5,0],[0,0.75,0],[1,0.25,0],[1,0.5,0],[1,0.75,0]];outlineConnect=0;fontColor=#232F3E;fillColor=#C925D1;strokeColor=#ffffff;dashed=0;verticalLabelPosition=bottom;verticalAlign=top;align=center;html=1;fontSize=12;fontStyle=0;aspect=fixed;shape=mxgraph.aws4.resourceIcon;resIcon=mxgraph.aws4.dynamodb;" vertex="1" parent="1">
          <mxGeometry x="730" y="181.5" width="48" height="48" as="geometry" />
        </mxCell>
        <mxCell id="ouNSiFEAy5_-CoIqK-8x-27" value="DynamoDB" style="sketch=0;points=[[0,0,0],[0.25,0,0],[0.5,0,0],[0.75,0,0],[1,0,0],[0,1,0],[0.25,1,0],[0.5,1,0],[0.75,1,0],[1,1,0],[0,0.25,0],[0,0.5,0],[0,0.75,0],[1,0.25,0],[1,0.5,0],[1,0.75,0]];outlineConnect=0;fontColor=#232F3E;fillColor=#C925D1;strokeColor=#ffffff;dashed=0;verticalLabelPosition=bottom;verticalAlign=top;align=center;html=1;fontSize=12;fontStyle=0;aspect=fixed;shape=mxgraph.aws4.resourceIcon;resIcon=mxgraph.aws4.dynamodb;" vertex="1" parent="1">
          <mxGeometry x="732" y="312.5" width="48" height="48" as="geometry" />
        </mxCell>
        <mxCell id="ouNSiFEAy5_-CoIqK-8x-28" value="DynamoDB" style="sketch=0;points=[[0,0,0],[0.25,0,0],[0.5,0,0],[0.75,0,0],[1,0,0],[0,1,0],[0.25,1,0],[0.5,1,0],[0.75,1,0],[1,1,0],[0,0.25,0],[0,0.5,0],[0,0.75,0],[1,0.25,0],[1,0.5,0],[1,0.75,0]];outlineConnect=0;fontColor=#232F3E;fillColor=#C925D1;strokeColor=#ffffff;dashed=0;verticalLabelPosition=bottom;verticalAlign=top;align=center;html=1;fontSize=12;fontStyle=0;aspect=fixed;shape=mxgraph.aws4.resourceIcon;resIcon=mxgraph.aws4.dynamodb;" vertex="1" parent="1">
          <mxGeometry x="732" y="471.5" width="48" height="48" as="geometry" />
        </mxCell>
      </root>
    </mxGraphModel>
  </diagram>
</mxfile>
